<?xml version="1.0" encoding="UTF-8" standalone="no"?>
<!DOCTYPE svg PUBLIC "-//W3C//DTD SVG 1.1//EN" "http://www.w3.org/Graphics/SVG/1.1/DTD/svg11.dtd">
<svg width="100%" height="100%" viewBox="0 0 300 300" version="1.1" xmlns="http://www.w3.org/2000/svg" xmlns:xlink="http://www.w3.org/1999/xlink" xml:space="preserve" xmlns:serif="http://www.serif.com/" style="fill-rule:evenodd;clip-rule:evenodd;stroke-linejoin:round;stroke-miterlimit:2;">
    <rect x="0" y="0" width="300" height="300" style="fill:url(#_Linear1);"/>
    <g transform="matrix(0.389466,0,0,0.391102,50.2968,49.878)">
        <path d="M437.09,74.98C388.781,26.629 324.551,0 256.234,0C194.656,0 136.07,21.809 89.707,61.699L40.105,12.961L30.168,181.469L201.469,168.801L152.859,123.773C182.281,100.672 218.43,88.105 256.234,88.105C348.727,88.105 423.977,163.422 423.977,256C423.977,348.578 348.727,423.898 256.234,423.898C213.77,423.898 173.258,407.98 142.156,379.082C111.223,350.332 92.359,311.395 89.047,269.438L87.953,255.621L0,255.621L0.949,271.516C9.016,406.367 121.148,512 256.234,512C324.551,512 388.781,485.371 437.09,437.02C485.395,388.668 512,324.379 512,256C512,187.621 485.395,123.332 437.09,74.98Z" style="fill:white;fill-rule:nonzero;"/>
    </g>
    <defs>
        <linearGradient id="_Linear1" x1="0" y1="0" x2="1" y2="0" gradientUnits="userSpaceOnUse" gradientTransform="matrix(-2.54,-303.81,303.81,-2.54,149.69,303.81)"><stop offset="0" style="stop-color:rgb(226,0,230);stop-opacity:1"/><stop offset="1" style="stop-color:rgb(223,75,0);stop-opacity:1"/></linearGradient>
    </defs>
</svg>